<svg width="97" height="97" viewBox="0 0 97 97" fill="none" xmlns="http://www.w3.org/2000/svg">
<path d="M73 4H24C12.9543 4 4 12.9543 4 24V73C4 84.0457 12.9543 93 24 93H73C84.0457 93 93 84.0457 93 73V24C93 12.9543 84.0457 4 73 4Z" stroke="white" stroke-width="8"/>
<path d="M57.552 26.816C57.8933 26.176 58.4693 25.728 59.28 25.472C60.0907 25.216 61.1147 25.088 62.352 25.088C63.5893 25.088 64.5707 25.1947 65.296 25.408C66.0213 25.6213 66.576 25.8773 66.96 26.176C67.344 26.4747 67.6427 26.9013 67.856 27.456C68.0693 28.1813 68.176 29.2907 68.176 30.784V66.304C68.176 67.2853 68.1333 68.032 68.048 68.544C68.0053 69.0133 67.8133 69.568 67.472 70.208C66.8747 71.36 65.2107 71.936 62.48 71.936C59.4933 71.936 57.744 71.1467 57.232 69.568C56.976 68.8427 56.848 67.7333 56.848 66.24V53.248H39.888V66.304C39.888 67.2853 39.8453 68.032 39.76 68.544C39.7173 69.0133 39.5253 69.568 39.184 70.208C38.5867 71.36 36.9227 71.936 34.192 71.936C31.2053 71.936 29.456 71.1467 28.944 69.568C28.688 68.8427 28.56 67.7333 28.56 66.24V30.72C28.56 29.7387 28.5813 29.0133 28.624 28.544C28.7093 28.032 28.9227 27.456 29.264 26.816C29.8613 25.664 31.5253 25.088 34.256 25.088C37.2427 25.088 39.0133 25.8773 39.568 27.456C39.7813 28.1813 39.888 29.2907 39.888 30.784V43.84H56.848V30.72C56.848 29.7387 56.8693 29.0133 56.912 28.544C56.9973 28.032 57.2107 27.456 57.552 26.816Z" fill="white"/>
</svg>
